<svg width="150" height="50" viewBox="0 0 150 50" fill="none" xmlns="http://www.w3.org/2000/svg">
<rect x="1" y="1" width="148" height="48" rx="4" fill="#6A669D" stroke="#6A669D" stroke-width="2"/>
<path d="M52.32 36.864C52.1707 37.0133 51.712 37.088 50.944 37.088C50.4107 37.1947 49.7813 37.1093 49.056 36.832L48.384 36.608L47.392 36.128C47.3067 36.128 47.2533 36.128 47.232 36.128C47.2107 36.1493 47.1573 36.128 47.072 36.064C46.944 35.9573 46.7947 35.872 46.624 35.808C46.1973 35.5093 45.8987 35.2427 45.728 35.008C45.0453 33.92 44.704 33.0133 44.704 32.288C44.704 32.2027 44.8107 32.0427 45.024 31.808C45.4507 31.296 45.984 31.04 46.624 31.04C46.88 31.0613 47.0827 31.1467 47.232 31.296L48.288 32.672C48.4587 32.8427 48.6507 33.0133 48.864 33.184L49.28 33.632L49.92 34.176C50.0053 34.2187 50.0907 34.24 50.176 34.24C50.2613 34.2827 50.496 34.336 50.88 34.4C51.3067 34.2933 51.6693 34.176 51.968 34.048C52.16 33.856 52.3307 33.7067 52.48 33.6L52.928 33.088C52.9707 33.0453 53.0453 32.8747 53.152 32.576C53.152 32.2987 53.152 32.1173 53.152 32.032C53.1733 31.9253 53.1413 31.6587 53.056 31.232C53.0347 31.168 52.8853 30.9973 52.608 30.72C52.48 30.464 52.2987 30.1867 52.064 29.888C51.936 29.76 51.3173 29.4187 50.208 28.864L49.6 28.512L49.024 28C48.7467 27.9147 48.352 27.6267 47.84 27.136C47.6267 26.9867 47.4667 26.8693 47.36 26.784C47.232 26.7413 46.88 26.3787 46.304 25.696C46.304 25.6533 46.1227 25.248 45.76 24.48L45.472 23.232L45.6 22.4C45.472 21.8453 45.4293 21.4293 45.472 21.152C45.5573 21.024 45.664 20.768 45.792 20.384C45.728 20.064 46.016 19.4347 46.656 18.496C46.656 18.368 47.1253 17.856 48.064 16.96L49.152 16.384L49.664 16.16C49.856 16.1387 50.112 16.1067 50.432 16.064C50.7733 16.0213 51.2747 16.0213 51.936 16.064C52.5973 16.1067 53.0133 16.192 53.184 16.32C53.3333 16.384 53.76 16.672 54.464 17.184C55.4027 18.016 55.9147 18.7627 56 19.424C56.3627 20.512 56.384 21.6747 56.064 22.912C56.064 22.9973 55.7653 23.168 55.168 23.424L54.368 23.392C53.6853 23.3067 53.0347 22.9547 52.416 22.336C52.2453 22.2293 52.1173 21.9307 52.032 21.44C52.0107 20.928 51.904 20.6187 51.712 20.512C51.6907 20.4907 51.6053 20.2987 51.456 19.936C51.0933 19.4667 50.848 19.232 50.72 19.232C50.6133 19.232 50.4853 19.264 50.336 19.328C49.568 19.9467 49.1627 20.64 49.12 21.408C48.9707 22.0267 49.1627 22.784 49.696 23.68C49.9307 24.0213 50.08 24.192 50.144 24.192C50.272 24.4053 50.5173 24.672 50.88 24.992L51.328 25.472L52.672 26.464L53.216 27.008L53.824 27.392C54.1653 27.5413 54.496 27.744 54.816 28C55.2427 28.32 55.7653 28.9173 56.384 29.792C56.512 29.984 56.6827 30.56 56.896 31.52V32.768L56.736 33.504C56.6293 33.6107 56.512 33.824 56.384 34.144C56.384 34.1653 56.2667 34.4533 56.032 35.008C55.968 35.1147 55.712 35.3387 55.264 35.68C54.624 36.192 53.9093 36.576 53.12 36.832C52.9493 36.8747 52.6827 36.8853 52.32 36.864ZM61.4605 24.704L61.4925 24.416C61.0445 24.3733 60.7245 24.3413 60.5325 24.32C60.3618 24.2773 60.0738 24.2347 59.6685 24.192C59.2632 24.1493 58.9432 24.0853 58.7085 24C58.2605 23.8507 58.0045 23.4667 57.9405 22.848C57.8765 22.208 58.0792 21.8133 58.5485 21.664C58.9752 21.5573 59.2738 21.504 59.4445 21.504C59.6152 21.504 59.9352 21.4827 60.4045 21.44C60.6392 21.312 60.9592 21.2373 61.3645 21.216L61.8445 21.088C61.8445 21.1093 61.9298 21.088 62.1005 21.024L62.2605 20.352C62.2605 20.0107 62.3565 19.6693 62.5485 19.328C62.5485 19.1787 62.6872 18.7627 62.9645 18.08C62.9645 17.9947 63.1565 17.376 63.5405 16.224C63.6258 16.1173 63.9458 15.872 64.5005 15.488C64.8418 15.3173 65.3218 15.4347 65.9405 15.84C66.2818 15.9893 66.5165 16.192 66.6445 16.448C66.5165 16.576 66.4525 16.8747 66.4525 17.344C66.4312 17.4933 66.2818 18.2827 66.0045 19.712V20.608C66.1752 20.6293 66.4525 20.6827 66.8365 20.768C67.2418 20.8533 67.7218 20.9493 68.2765 21.056C69.3432 21.2693 70.0152 21.696 70.2925 22.336C70.3992 22.8053 70.3778 23.136 70.2285 23.328C70.0792 23.52 69.7165 23.6587 69.1405 23.744C68.6712 23.7653 68.0525 23.776 67.2845 23.776C66.5378 23.776 65.9832 23.8293 65.6205 23.936C65.5778 24.32 65.5565 24.6187 65.5565 24.832L65.5245 25.312C65.5245 25.4613 65.4285 26.2507 65.2365 27.68C65.1085 27.872 65.0018 28.864 64.9165 30.656V32.992C64.9165 33.376 64.9485 33.7387 65.0125 34.08C65.0338 34.5493 65.0872 34.88 65.1725 35.072C65.1725 35.264 65.2258 35.6693 65.3325 36.288C65.0765 36.9067 64.6498 37.216 64.0525 37.216C63.4765 37.216 62.9645 37.0027 62.5165 36.576L62.1645 36.064C62.1005 35.8933 62.0472 35.776 62.0045 35.712C61.9832 35.648 61.9618 35.5733 61.9405 35.488C61.7912 35.0613 61.6738 34.7947 61.5885 34.688C61.4605 34.5173 61.3965 34.3893 61.3965 34.304C61.3965 34.2187 61.3965 34.112 61.3965 33.984C61.3538 33.6213 61.3005 33.312 61.2365 33.056C61.1298 32.9493 61.0765 32.5867 61.0765 31.968C61.1192 30.8373 61.1192 30.1867 61.0765 30.016C61.1405 29.952 61.1512 29.5467 61.1085 28.8L61.2045 28.096C61.2045 28.0107 61.2472 27.6907 61.3325 27.136C61.2898 27.0507 61.2792 26.8267 61.3005 26.464C61.3218 26.08 61.3538 25.8133 61.3965 25.664C61.4392 25.408 61.4605 25.088 61.4605 24.704ZM76.5848 26.816C76.5634 26.3467 76.4568 25.9947 76.2648 25.76C76.0728 25.504 75.7208 25.3547 75.2088 25.312C75.0594 25.4187 74.8568 25.7813 74.6008 26.4C74.3661 26.9973 74.2168 27.6373 74.1528 28.32C73.9394 29.344 73.8328 30.368 73.8328 31.392C73.8541 32.4373 74.0248 33.2053 74.3448 33.696C74.3874 33.7813 74.4301 33.8133 74.4728 33.792C74.5794 33.792 74.7501 33.5787 74.9848 33.152C76.1154 31.104 76.6488 28.992 76.5848 26.816ZM77.5768 32.928L77.0968 34.176C77.0968 34.2187 76.7874 34.6773 76.1688 35.552C75.9768 35.9573 75.6141 36.1813 75.0808 36.224C74.5688 36.2667 74.0674 36.2133 73.5768 36.064C72.9154 35.8293 72.4141 35.552 72.0728 35.232C71.7314 34.912 71.3901 34.3787 71.0488 33.632C70.7288 32.864 70.5581 32.2347 70.5368 31.744C70.4301 31.04 70.3768 30.592 70.3768 30.4V29.632C70.3768 28.864 70.4088 28.416 70.4728 28.288C70.4941 28.2027 70.5474 27.9787 70.6328 27.616C70.7394 26.72 70.9954 25.8667 71.4008 25.056C72.1901 23.4987 73.0008 22.6987 73.8328 22.656H73.9928C74.0354 22.6773 74.0994 22.688 74.1848 22.688H74.6008C75.3474 22.752 75.8061 22.816 75.9768 22.88C76.2968 22.9653 76.5741 23.008 76.8088 23.008L77.6408 23.168C77.8968 23.1467 78.2274 23.2 78.6328 23.328C79.0594 23.456 79.2834 23.552 79.3048 23.616C79.3474 23.68 79.4114 23.9147 79.4968 24.32C79.5821 24.7253 79.6354 25.024 79.6568 25.216C79.6994 25.3867 79.7314 25.568 79.7528 25.76C79.9234 27.3173 80.2008 28.768 80.5848 30.112C80.6061 30.176 80.6274 30.272 80.6488 30.4C80.6701 30.528 80.7448 30.784 80.8728 31.168C81.0008 31.5307 81.0968 31.84 81.1608 32.096C81.2248 32.352 81.3421 32.6933 81.5128 33.12C81.6408 33.44 81.8328 33.8133 82.0888 34.24C82.5581 34.9013 82.3128 35.4133 81.3528 35.776C81.2248 35.8187 81.0008 35.84 80.6808 35.84C80.6168 35.84 80.4141 35.7333 80.0728 35.52C79.8594 35.52 79.6568 35.4027 79.4648 35.168L79.2088 35.104C79.0594 34.9547 78.9314 34.88 78.8248 34.88C78.7821 34.8373 78.3981 33.9733 77.6728 32.288C77.6088 32.5227 77.5768 32.736 77.5768 32.928ZM84.446 24.352C84.2967 23.584 84.4567 23.0507 84.926 22.752C85.1607 22.624 85.342 22.5707 85.47 22.592C85.6193 22.592 86.078 22.7093 86.846 22.944C86.9527 22.944 87.0273 22.9653 87.07 23.008C87.1127 23.008 87.1767 23.0293 87.262 23.072C87.454 23.072 87.55 23.1147 87.55 23.2C87.742 23.52 87.8593 23.8933 87.902 24.32C87.9873 25.1947 88.094 25.9093 88.222 26.464C88.222 26.4427 88.2327 26.4107 88.254 26.368C88.6593 25.856 88.8727 25.5573 88.894 25.472C88.8513 25.4293 88.926 25.312 89.118 25.12C89.2673 24.6507 89.374 24.3627 89.438 24.256C89.438 24.1493 89.534 23.9787 89.726 23.744C89.8753 23.4453 90.0033 23.2533 90.11 23.168C90.2167 23.0613 90.302 22.976 90.366 22.912C90.686 22.592 91.1127 22.4747 91.646 22.56C91.71 22.56 91.8273 22.5493 91.998 22.528C92.3393 22.4853 92.542 22.5173 92.606 22.624C93.2673 22.624 93.5233 23.4347 93.374 25.056C93.2887 25.7813 93.1607 26.1973 92.99 26.304C92.8193 26.4107 92.4887 26.528 91.998 26.656C91.5287 26.784 91.198 26.8907 91.006 26.976C90.2593 27.296 89.7793 27.7867 89.566 28.448C89.5447 28.6827 89.4807 28.928 89.374 29.184C89.3313 29.5253 89.2993 29.728 89.278 29.792C89.278 29.856 89.278 29.984 89.278 30.176C89.278 30.6027 89.214 31.008 89.086 31.392C89.022 31.7973 88.99 32.448 88.99 33.344C89.0113 34.2187 88.99 34.8373 88.926 35.2C88.8833 35.5627 88.8513 35.744 88.83 35.744C88.8513 35.8507 88.862 35.9253 88.862 35.968V36.16C88.798 36.3307 88.5953 36.5867 88.254 36.928L87.774 36.96C87.2833 36.96 87.0167 36.928 86.974 36.864C86.7607 36.7787 86.6007 36.6507 86.494 36.48C86.366 36.4587 86.302 36.3733 86.302 36.224C86.11 36.1813 85.9927 36.0533 85.95 35.84C85.7153 35.584 85.598 35.4133 85.598 35.328C85.3633 34.5173 85.278 33.8133 85.342 33.216V31.584C85.3847 31.456 85.406 31.3813 85.406 31.36V31.072C85.534 30.944 85.5553 30.8587 85.47 30.816V30.56C85.4913 30.5387 85.502 30.464 85.502 30.336C85.5233 30.208 85.5447 29.984 85.566 29.664C85.6087 29.3867 85.534 28.448 85.342 26.848C85.2567 26.7627 85.1073 26.3253 84.894 25.536C84.894 25.408 84.8513 25.2587 84.766 25.088V24.8C84.6807 24.544 84.606 24.416 84.542 24.416C84.478 24.3947 84.446 24.3733 84.446 24.352ZM94.666 23.456C94.602 23.136 94.5593 22.9547 94.538 22.912C94.4313 22.6987 94.378 22.5067 94.378 22.336C94.378 22.1653 94.3673 22.08 94.346 22.08C94.3887 21.5893 94.5807 21.2267 94.922 20.992C95.2633 20.736 95.7433 20.672 96.362 20.8L97.386 21.184L98.858 21.536L99.594 19.424C99.786 19.0827 99.882 18.848 99.882 18.72C99.9033 18.592 99.946 18.4533 100.01 18.304C100.095 18.0053 100.181 17.7813 100.266 17.632L100.394 17.12C100.543 16.8427 100.842 16.6613 101.29 16.576C101.546 16.4693 101.77 16.4693 101.962 16.576C102.538 16.5973 102.975 16.8107 103.274 17.216C103.274 17.3227 103.242 17.4933 103.178 17.728C103.114 17.9627 103.061 18.272 103.018 18.656L102.218 21.856H102.474L103.274 21.824C103.381 21.8453 103.498 21.856 103.626 21.856C104.095 21.7493 104.458 21.6853 104.714 21.664C104.97 21.6213 105.141 21.5893 105.226 21.568C105.29 21.5893 105.471 21.5893 105.77 21.568C106.069 21.5467 106.378 21.6427 106.698 21.856C107.018 22.048 107.178 22.2933 107.178 22.592C107.178 22.8693 106.975 23.1147 106.57 23.328L106.282 23.712C105.941 23.84 105.642 23.9893 105.386 24.16C105.087 24.3307 103.861 24.6187 101.706 25.024L101.482 26.656C101.525 26.7627 101.546 26.848 101.546 26.912C101.397 27.8293 101.269 28.9707 101.162 30.336C101.183 30.8267 101.194 31.1573 101.194 31.328V32.192C101.173 32.2347 101.162 32.3733 101.162 32.608C101.162 33.1413 101.226 33.7707 101.354 34.496C101.482 35.2 101.557 35.6267 101.578 35.776C101.599 35.9253 101.61 36.096 101.61 36.288C101.589 36.6507 101.439 36.8853 101.162 36.992C100.479 36.992 99.9033 36.8747 99.434 36.64C99.05 36.576 98.8793 36.4907 98.922 36.384C98.7727 36.2773 98.602 36.0747 98.41 35.776C98.41 35.6053 98.3993 35.5093 98.378 35.488C98.2287 35.424 98.154 35.2533 98.154 34.976C98.1327 34.9547 98.1113 34.88 98.09 34.752L97.866 33.952C97.674 33.696 97.61 33.3547 97.674 32.928C97.674 32.8427 97.642 32.736 97.578 32.608V32.384C97.578 32.2133 97.5887 32.0853 97.61 32C97.5033 31.4027 97.514 30.6987 97.642 29.888C97.77 29.056 97.8553 28.4587 97.898 28.096C97.8553 27.9893 97.8767 27.8507 97.962 27.68C97.962 27.488 98.0047 27.1893 98.09 26.784L98.378 24.96C98.25 24.9173 98.122 24.896 97.994 24.896C96.8633 24.64 96.2767 24.48 96.234 24.416L95.85 24.192C95.7007 24.192 95.4873 24.1173 95.21 23.968C94.9327 23.7973 94.7513 23.6267 94.666 23.456Z" fill="#FBE9F5"/>
</svg>
