<svg width="125" height="50" viewBox="0 0 125 50" fill="none" xmlns="http://www.w3.org/2000/svg">
<rect x="1.5" y="1.5" width="122" height="47" rx="3.5" fill="#6A669D" fill-opacity="0.7" stroke="#6A669D" stroke-width="3"/>
<path d="M39.7501 26.136C39.8461 25.944 39.9101 25.592 39.9421 25.08C39.9741 24.568 40.0061 24.216 40.0381 24.024C40.0381 22.152 39.5261 20.928 38.5021 20.352C38.0861 20.112 37.6861 20.048 37.3021 20.16C37.1261 20.16 36.8541 20.272 36.4861 20.496C36.4701 20.72 36.4621 21.096 36.4621 21.624L36.3421 22.512L36.1261 24.72C36.1261 24.752 36.1101 24.984 36.0781 25.416C35.8381 27.928 35.7181 29.808 35.7181 31.056C36.0061 30.992 36.2541 30.856 36.4621 30.648C37.0221 30.184 37.3341 29.936 37.3981 29.904L37.7341 29.592C37.8141 29.576 38.0221 29.384 38.3581 29.016V28.992L38.8141 28.392L39.2941 27.408C39.4221 27.232 39.5741 26.808 39.7501 26.136ZM32.8141 29.76C32.7821 29.696 32.7661 29.584 32.7661 29.424C32.7661 29.248 32.7901 29.048 32.8381 28.824C32.8861 28.6 32.9101 28.336 32.9101 28.032C32.9101 27.728 32.9581 27.336 33.0541 26.856C32.9901 26.76 32.9981 26.4 33.0781 25.776C33.1581 25.632 33.1901 25.44 33.1741 25.2C33.1581 24.96 33.1501 24.768 33.1501 24.624C33.1501 23.936 33.1661 23.544 33.1981 23.448C33.2301 23.352 33.2381 23.16 33.2221 22.872C33.3181 22.776 33.3981 22.4 33.4621 21.744C32.9181 21.76 32.5101 21.616 32.2381 21.312C31.9661 20.992 31.7421 20.544 31.5661 19.968C31.5821 19.872 31.5981 19.784 31.6141 19.704C31.6461 19.608 31.6701 19.528 31.6861 19.464C31.7021 19.4 31.7341 19.336 31.7821 19.272C31.8301 19.192 31.8621 19.136 31.8781 19.104C31.9101 19.056 31.9661 19 32.0461 18.936C32.1261 18.856 32.1821 18.808 32.2141 18.792C32.2461 18.76 32.3181 18.712 32.4301 18.648C32.5421 18.568 32.6141 18.52 32.6461 18.504C32.6781 18.472 32.7581 18.416 32.8861 18.336C33.0301 18.24 33.1261 18.176 33.1741 18.144C33.2221 18.064 33.3501 18.008 33.5581 17.976C33.7661 17.928 34.0781 17.816 34.4941 17.64C34.5581 17.576 34.9341 17.472 35.6221 17.328C36.3101 17.168 36.9821 17.224 37.6381 17.496C38.0061 17.496 38.2701 17.528 38.4301 17.592C38.5901 17.736 38.8061 17.84 39.0781 17.904L40.3021 18.552C40.4781 18.728 40.8381 19.144 41.3821 19.8C41.9741 20.856 42.3501 21.928 42.5101 23.016C42.5261 23.32 42.5341 23.856 42.5341 24.624C42.3901 26.08 42.1261 27.136 41.7421 27.792C41.7101 27.984 41.6221 28.224 41.4781 28.512C41.4781 28.544 41.3661 28.744 41.1421 29.112C40.9341 29.464 40.6941 29.816 40.4221 30.168C40.1501 30.504 39.9741 30.728 39.8941 30.84C39.2381 31.448 38.8701 31.784 38.7901 31.848C38.4221 32.12 38.2141 32.264 38.1661 32.28C36.9501 32.888 36.3021 33.216 36.2221 33.264C36.1581 33.312 35.9661 33.368 35.6461 33.432C35.1821 33.48 34.8941 33.456 34.7821 33.36C34.5261 33.248 34.2941 33.08 34.0861 32.856C34.0221 32.84 33.8941 32.712 33.7021 32.472C33.4461 32.28 33.3021 32.168 33.2701 32.136C33.0621 31.832 32.9101 31.256 32.8141 30.408C32.7981 30.344 32.7981 30.128 32.8141 29.76ZM45.6344 17.952C46.7064 17.952 47.4584 18.168 47.8904 18.6C47.8904 18.872 47.7064 19.424 47.3384 20.256C47.2744 20.528 47.1704 20.744 47.0264 20.904L46.7144 21.216C46.6344 21.264 46.5544 21.288 46.4744 21.288C45.8984 21.432 45.4504 21.32 45.1304 20.952C45.0664 20.856 44.9864 20.784 44.8904 20.736C44.8104 20.688 44.7464 20.544 44.6984 20.304C44.5544 20.096 44.4824 19.936 44.4824 19.824C44.4504 18.832 44.8104 18.208 45.5624 17.952H45.6344ZM45.4424 23.616C45.6024 23.536 45.9784 23.616 46.5704 23.856C46.6344 23.92 46.7304 23.984 46.8584 24.048L47.2424 24.36C47.3064 24.424 47.3384 24.528 47.3384 24.672V26.784C47.3384 27.104 47.3224 27.392 47.2904 27.648V27.792C47.2424 28.448 47.2824 29.928 47.4104 32.232C47.4584 32.68 47.3544 32.952 47.0984 33.048C46.8264 33.048 46.6504 33.008 46.5704 32.928C46.5064 32.896 46.4504 32.88 46.4024 32.88H46.2344L46.0904 32.928C46.0424 32.928 45.9544 32.896 45.8264 32.832C45.6984 32.752 45.6104 32.672 45.5624 32.592C45.5304 32.512 45.4664 32.464 45.3704 32.448C45.1944 32.384 45.0984 32.264 45.0824 32.088C44.8584 31.656 44.7384 31.4 44.7224 31.32C44.7224 31.24 44.6984 31.152 44.6504 31.056L44.5304 28.968C44.5304 28.728 44.5464 28.544 44.5784 28.416V27.84C44.5944 27.664 44.6104 27.344 44.6264 26.88C44.6424 26.4 44.6664 26.016 44.6984 25.728C44.6664 25.312 44.6504 25.032 44.6504 24.888C44.6504 24.744 44.6584 24.64 44.6744 24.576C44.4984 24.4 44.5064 24.16 44.6984 23.856C44.9064 23.696 45.1064 23.616 45.2984 23.616H45.4424ZM50.5439 23.688C50.9759 23.16 51.5679 22.88 52.3199 22.848C53.5519 22.8 54.4639 23.104 55.0559 23.76C55.6639 24.416 55.9839 25.064 56.0159 25.704C56.0639 26.344 55.9039 26.688 55.5359 26.736C55.0079 26.752 54.6639 26.68 54.5039 26.52C54.3599 26.536 54.1759 26.432 53.9519 26.208C53.8559 26.16 53.7279 25.976 53.5679 25.656L53.3039 25.056C53.1759 24.768 53.0159 24.608 52.8239 24.576C52.5839 24.672 52.4639 24.912 52.4639 25.296C52.5279 26.048 52.8879 26.768 53.5439 27.456C53.5439 27.456 53.5519 27.48 53.5679 27.528C53.5999 27.56 53.7199 27.688 53.9279 27.912C55.1919 29.304 55.8479 30.424 55.8959 31.272C55.8959 31.816 55.7839 32.176 55.5599 32.352C54.8719 33.168 53.9759 33.592 52.8719 33.624C51.7679 33.656 50.8559 33.312 50.1359 32.592C49.9439 32.4 49.8479 32.216 49.8479 32.04C49.7519 31.736 49.7199 31.536 49.7519 31.44C49.7039 30.992 49.7039 30.656 49.7519 30.432C49.8479 29.92 50.2239 29.656 50.8799 29.64C51.1199 29.64 51.2719 29.784 51.3359 30.072C51.5439 30.888 51.7359 31.424 51.9119 31.68C52.1039 31.936 52.4079 32.056 52.8239 32.04C53.3519 32.008 53.5999 31.712 53.5679 31.152C53.5519 30.592 53.2879 30.072 52.7759 29.592C52.6159 29.4 52.4559 29.256 52.2959 29.16C52.1519 29.048 52.0559 28.968 52.0079 28.92C51.9919 28.872 51.9519 28.824 51.8879 28.776C51.5679 28.52 51.1599 28.096 50.6639 27.504C50.1839 26.912 49.9279 26.36 49.8959 25.848C49.8319 24.936 50.0479 24.216 50.5439 23.688ZM68.3721 31.536C68.3721 31.408 68.3081 31.288 68.1801 31.176C68.0521 31.048 67.9881 30.912 67.9881 30.768C67.9881 30.608 67.9561 30.352 67.8921 30C67.9241 29.936 67.9161 29.704 67.8681 29.304C67.8841 29.272 67.8761 29.04 67.8441 28.608C67.8281 28.176 67.8201 27.792 67.8201 27.456L67.5801 27.888C67.0681 29.136 66.8121 29.792 66.8121 29.856L66.2601 31.536L66.1161 32.112C65.9881 32.528 65.9641 32.952 66.0441 33.384C66.0761 33.528 65.9081 33.68 65.5401 33.84C65.4441 33.84 65.2041 33.792 64.8201 33.696C64.6921 33.696 64.5641 33.696 64.4361 33.696C64.3241 33.712 63.9961 33.632 63.4521 33.456C63.4521 33.392 63.3241 33.256 63.0681 33.048L62.9961 31.392C62.9961 31.04 63.0441 30.496 63.1401 29.76V29.16L63.2361 28.368L63.3561 26.88V26.4C62.9241 27.632 62.6361 28.432 62.4921 28.8C62.4921 28.992 62.3161 29.64 61.9641 30.744C61.6281 32.12 61.4921 33.008 61.5561 33.408C61.5561 33.504 61.5241 33.576 61.4601 33.624C61.4121 33.688 61.2761 33.776 61.0521 33.888C60.7001 33.888 60.1641 33.816 59.4441 33.672L59.0121 33.48C58.8681 33.432 58.7401 33.24 58.6281 32.904C58.5161 32.568 58.4521 32.28 58.4361 32.04C58.3721 31.96 58.3401 31.776 58.3401 31.488L58.3161 31.2C58.2041 29.488 58.1481 28.312 58.1481 27.672C58.1801 27.576 58.1961 27.416 58.1961 27.192V26.52C58.1961 26.232 58.2121 25.856 58.2441 25.392C58.2921 24.928 58.3161 24.592 58.3161 24.384L58.2921 23.592C58.3561 23.336 58.6921 23.176 59.3001 23.112C59.5721 23.112 59.8041 23.16 59.9961 23.256C60.3161 23.464 60.5161 23.712 60.5961 24C60.6921 24.288 60.7481 24.656 60.7641 25.104C60.7801 25.552 60.7801 25.928 60.7641 26.232C60.7481 27.096 60.7881 27.704 60.8841 28.056C60.9801 27.864 61.1081 27.528 61.2681 27.048C61.3001 27.016 61.4681 26.592 61.7721 25.776L62.2761 24.264C62.6441 23.768 62.8441 23.512 62.8761 23.496C62.9241 23.464 63.0521 23.44 63.2601 23.424C63.5001 23.408 63.7721 23.472 64.0761 23.616C64.3961 23.744 64.5641 23.816 64.5801 23.832C64.6121 23.832 64.7561 23.912 65.0121 24.072C65.1241 24.168 65.2281 24.352 65.3241 24.624C65.4201 24.896 65.4681 25.12 65.4681 25.296C65.5001 25.936 65.5161 26.272 65.5161 26.304V26.592C65.4841 27.552 65.5081 28.08 65.5881 28.176C65.7001 27.76 65.9161 27.224 66.2361 26.568L66.4761 25.944L66.9561 24.96C66.9401 24.912 67.0281 24.688 67.2201 24.288L67.4601 23.544C67.6041 23.048 68.0041 22.656 68.6601 22.368C68.7881 22.368 69.0921 22.456 69.5721 22.632C69.8921 22.632 70.1801 22.848 70.4361 23.28C70.5481 23.456 70.6041 23.688 70.6041 23.976C70.6041 24.04 70.5801 24.432 70.5321 25.152V25.92C70.5001 26.112 70.4921 26.28 70.5081 26.424L70.4841 27.168V28.584C70.4841 28.776 70.4761 28.904 70.4601 28.968L70.5321 30.312C70.5961 30.424 70.6281 30.584 70.6281 30.792C70.7241 31.592 70.9161 32.2 71.2041 32.616L71.3721 32.928C71.0041 33.568 70.4281 33.76 69.6441 33.504C69.5801 33.392 69.4921 33.296 69.3801 33.216C69.2841 33.136 69.1481 33.008 68.9721 32.832C68.9721 32.816 68.8601 32.648 68.6361 32.328C68.6361 32.136 68.5481 31.872 68.3721 31.536ZM74.8381 17.472C74.8541 17.456 75.0061 17.432 75.2941 17.4C75.7581 17.32 76.0781 17.352 76.2541 17.496C76.4461 17.624 76.5821 17.768 76.6621 17.928C76.6941 18.44 76.6221 19.104 76.4461 19.92C76.2701 20.448 76.1181 20.84 75.9901 21.096L75.7501 21.456C75.7021 21.584 75.5981 21.72 75.4381 21.864C75.2781 22.008 75.1581 22.08 75.0781 22.08C75.0141 22.064 74.8941 22.008 74.7181 21.912C74.5581 21.8 74.4621 21.72 74.4301 21.672C74.4141 21.624 74.3981 21.568 74.3821 21.504L74.2621 21.024L73.7821 20.424C73.6861 20.232 73.6381 20.04 73.6381 19.848C73.5901 19.4 73.6461 19.056 73.8061 18.816C73.8061 18.784 73.8301 18.704 73.8781 18.576C73.9581 18.224 74.2781 17.856 74.8381 17.472ZM74.1181 28.248C74.1181 28.104 74.1421 27.912 74.1901 27.672C74.2541 27.416 74.2701 27.24 74.2381 27.144C74.2221 27.048 74.2221 26.776 74.2381 26.328C74.2861 26.136 74.2941 25.92 74.2621 25.68C74.1501 25.328 74.1181 25.072 74.1661 24.912C74.2141 24.752 74.3181 24.576 74.4781 24.384C74.6381 24.176 74.8141 24.032 75.0061 23.952C75.1981 23.872 75.4861 23.88 75.8701 23.976C75.9661 24.024 76.1261 24.184 76.3501 24.456C76.3981 24.504 76.4541 24.688 76.5181 25.008C76.5981 25.328 76.6461 25.68 76.6621 26.064C76.6941 26.432 76.7181 26.976 76.7341 27.696C76.7501 28.4 76.7821 29.352 76.8301 30.552C76.8781 31.736 76.8861 32.472 76.8541 32.76C76.8381 33.048 76.7341 33.264 76.5421 33.408C76.3661 33.568 76.2061 33.6 76.0621 33.504C75.9341 33.424 75.7981 33.368 75.6541 33.336C75.3981 33.336 75.1741 33.232 74.9821 33.024C74.9181 33.008 74.7661 32.936 74.5261 32.808C74.2861 32.664 74.1341 32.408 74.0701 32.04C73.9901 31.88 73.9661 31.36 73.9981 30.48V29.616L74.1181 28.8V28.248ZM79.2196 24.864L79.1956 24.672C79.1956 24.592 79.2436 24.472 79.3396 24.312C79.4196 24.184 79.5396 24.032 79.6996 23.856C79.8596 23.68 79.9556 23.576 79.9876 23.544C80.1956 23.4 80.3796 23.312 80.5396 23.28C80.6516 23.2 80.8916 23.12 81.2596 23.04H81.5236C81.6196 23.04 81.6916 23.048 81.7396 23.064C81.7876 23.08 81.9556 23.112 82.2436 23.16C82.6916 23.128 83.1396 23.184 83.5876 23.328C83.6996 23.408 83.7876 23.472 83.8516 23.52C83.9156 23.568 84.0036 23.64 84.1156 23.736C84.2436 23.816 84.3876 23.92 84.5476 24.048C84.7236 24.16 84.9556 24.344 85.2436 24.6C85.8196 25.128 86.0036 25.664 85.7956 26.208L85.5796 26.664C85.3396 26.904 85.0836 26.984 84.8116 26.904L84.5956 26.88C84.4196 26.784 84.2756 26.592 84.1636 26.304C84.0196 26.176 83.9236 26.088 83.8756 26.04C83.4276 25.592 82.9476 25.304 82.4356 25.176C82.1636 25.192 81.8996 25.336 81.6436 25.608C81.3876 25.88 81.3956 26.232 81.6676 26.664C81.6676 26.808 81.6836 26.896 81.7156 26.928C81.7476 26.96 81.8196 27.08 81.9316 27.288C82.1396 27.544 82.2996 27.76 82.4116 27.936C82.4916 28.16 82.6196 28.32 82.7956 28.416L82.9396 28.728C82.9876 28.744 83.2116 28.88 83.6116 29.136C83.7076 29.216 83.8036 29.336 83.8996 29.496C83.8996 29.496 84.2116 29.84 84.8356 30.528C84.9316 30.624 85.0276 30.776 85.1236 30.984C85.3156 31.176 85.4116 31.352 85.4116 31.512C85.4276 31.672 85.3956 31.848 85.3156 32.04C85.3156 32.216 85.2356 32.36 85.0756 32.472C84.9316 32.584 84.8196 32.68 84.7396 32.76C84.6756 32.824 84.4116 33 83.9476 33.288C83.9156 33.368 83.5476 33.552 82.8436 33.84L82.1236 34.032C82.1076 34.032 82.0356 34.04 81.9076 34.056C81.7796 34.088 81.5716 34.104 81.2836 34.104H81.0916C81.0116 34.136 80.8276 34.152 80.5396 34.152C80.0276 34.136 79.5796 34.016 79.1956 33.792C79.1156 33.76 79.0676 33.72 79.0516 33.672C78.7316 33.16 78.5716 32.944 78.5716 33.024C78.5076 32.944 78.4596 32.784 78.4276 32.544C78.4116 32.304 78.3956 32.16 78.3796 32.112C78.3636 32.048 78.3876 31.96 78.4516 31.848C78.5956 31.592 78.8836 31.576 79.3156 31.8L79.6276 31.968C79.7716 32.112 79.9476 32.2 80.1556 32.232C80.2676 32.216 80.4036 32.216 80.5636 32.232C80.7236 32.248 80.8756 32.248 81.0196 32.232L81.4516 32.04H81.4276C81.4436 32.024 81.4916 32.016 81.5716 32.016C81.6516 32 81.7716 31.968 81.9316 31.92C82.3956 31.776 82.5796 31.552 82.4836 31.248L82.3156 30.96C82.1396 30.592 81.9476 30.328 81.7396 30.168L81.5476 30.048C80.9076 29.424 80.4036 28.896 80.0356 28.464C79.9876 28.432 79.8836 28.344 79.7236 28.2C79.5796 28.056 79.4676 27.816 79.3876 27.48C79.2436 27.176 79.1636 26.968 79.1476 26.856V26.4C79.1476 26.368 79.1396 26.272 79.1236 26.112C79.1076 25.952 79.1076 25.816 79.1236 25.704C79.1556 25.576 79.1556 25.48 79.1236 25.416C79.1076 25.352 79.1396 25.168 79.2196 24.864ZM88.3017 23.688C88.7337 23.16 89.3257 22.88 90.0777 22.848C91.3097 22.8 92.2217 23.104 92.8137 23.76C93.4217 24.416 93.7417 25.064 93.7737 25.704C93.8217 26.344 93.6617 26.688 93.2937 26.736C92.7657 26.752 92.4217 26.68 92.2617 26.52C92.1177 26.536 91.9337 26.432 91.7097 26.208C91.6137 26.16 91.4857 25.976 91.3257 25.656L91.0617 25.056C90.9337 24.768 90.7737 24.608 90.5817 24.576C90.3417 24.672 90.2217 24.912 90.2217 25.296C90.2857 26.048 90.6457 26.768 91.3017 27.456C91.3017 27.456 91.3097 27.48 91.3257 27.528C91.3577 27.56 91.4777 27.688 91.6857 27.912C92.9497 29.304 93.6057 30.424 93.6537 31.272C93.6537 31.816 93.5417 32.176 93.3177 32.352C92.6297 33.168 91.7337 33.592 90.6297 33.624C89.5257 33.656 88.6137 33.312 87.8937 32.592C87.7017 32.4 87.6057 32.216 87.6057 32.04C87.5097 31.736 87.4777 31.536 87.5097 31.44C87.4617 30.992 87.4617 30.656 87.5097 30.432C87.6057 29.92 87.9817 29.656 88.6377 29.64C88.8777 29.64 89.0297 29.784 89.0937 30.072C89.3017 30.888 89.4937 31.424 89.6697 31.68C89.8617 31.936 90.1657 32.056 90.5817 32.04C91.1097 32.008 91.3577 31.712 91.3257 31.152C91.3097 30.592 91.0457 30.072 90.5337 29.592C90.3737 29.4 90.2137 29.256 90.0537 29.16C89.9097 29.048 89.8137 28.968 89.7657 28.92C89.7497 28.872 89.7097 28.824 89.6457 28.776C89.3257 28.52 88.9177 28.096 88.4217 27.504C87.9417 26.912 87.6857 26.36 87.6537 25.848C87.5897 24.936 87.8057 24.216 88.3017 23.688Z" fill="#FBE9F5"/>
</svg>
