<svg width="56" height="56" viewBox="0 0 56 56" fill="none" xmlns="http://www.w3.org/2000/svg">
<mask id="path-1-outside-1_157_39" maskUnits="userSpaceOnUse" x="0" y="0" width="56" height="56" fill="black">
<rect fill="white" width="56" height="56"/>
<path d="M30.5 3C33.2614 3 35.5 5.23857 35.5 8V20.5H48C50.7614 20.5 53 22.7386 53 25.5V30.5C53 33.2614 50.7614 35.5 48 35.5H35.5V48C35.5 50.7614 33.2614 53 30.5 53H25.5C22.7386 53 20.5 50.7614 20.5 48V35.5H8C5.23858 35.5 3 33.2614 3 30.5V25.5C3 22.7386 5.23858 20.5 8 20.5H20.5V8C20.5 5.23858 22.7386 3 25.5 3H30.5Z"/>
</mask>
<path d="M30.5 3C33.2614 3 35.5 5.23857 35.5 8V20.5H48C50.7614 20.5 53 22.7386 53 25.5V30.5C53 33.2614 50.7614 35.5 48 35.5H35.5V48C35.5 50.7614 33.2614 53 30.5 53H25.5C22.7386 53 20.5 50.7614 20.5 48V35.5H8C5.23858 35.5 3 33.2614 3 30.5V25.5C3 22.7386 5.23858 20.5 8 20.5H20.5V8C20.5 5.23858 22.7386 3 25.5 3H30.5Z" fill="#6A669D" fill-opacity="0.7"/>
<path d="M35.5 20.5H32.5V23.5H35.5V20.5ZM35.5 35.5V32.5H32.5V35.5H35.5ZM35.5 48L38.5 48V48H35.5ZM20.5 35.5H23.5V32.5H20.5V35.5ZM8 35.5L8 38.5H8V35.5ZM20.5 20.5V23.5H23.5V20.5H20.5ZM30.5 3V6C31.6046 6 32.5 6.89543 32.5 8H35.5H38.5C38.5 3.58172 34.9183 0 30.5 0V3ZM35.5 8H32.5V20.5H35.5H38.5V8H35.5ZM35.5 20.5V23.5H48V20.5V17.5H35.5V20.5ZM48 20.5V23.5C49.1046 23.5 50 24.3954 50 25.5H53H56C56 21.0817 52.4183 17.5 48 17.5V20.5ZM53 25.5H50V30.5H53H56V25.5H53ZM53 30.5H50C50 31.6046 49.1046 32.5 48 32.5V35.5V38.5C52.4183 38.5 56 34.9183 56 30.5H53ZM48 35.5V32.5H35.5V35.5V38.5H48V35.5ZM35.5 35.5H32.5V48H35.5H38.5V35.5H35.5ZM35.5 48L32.5 48C32.5 49.1046 31.6046 50 30.5 50V53V56C34.9183 56 38.5 52.4183 38.5 48L35.5 48ZM30.5 53V50H25.5V53V56H30.5V53ZM25.5 53V50C24.3954 50 23.5 49.1046 23.5 48H20.5H17.5C17.5 52.4183 21.0817 56 25.5 56V53ZM20.5 48H23.5V35.5H20.5H17.5V48H20.5ZM20.5 35.5V32.5H8V35.5V38.5H20.5V35.5ZM8 35.5L8 32.5C6.89543 32.5 6 31.6046 6 30.5H3H0C0 34.9183 3.58172 38.5 8 38.5L8 35.5ZM3 30.5H6V25.5H3H0V30.5H3ZM3 25.5H6C6 24.3954 6.89543 23.5 8 23.5V20.5V17.5C3.58172 17.5 0 21.0817 0 25.5H3ZM8 20.5V23.5H20.5V20.5V17.5H8V20.5ZM20.5 20.5H23.5V8H20.5H17.5V20.5H20.5ZM20.5 8H23.5C23.5 6.89543 24.3954 6 25.5 6V3V0C21.0817 0 17.5 3.58173 17.5 8H20.5ZM25.5 3V6H30.5V3V0H25.5V3Z" fill="#6A669D" mask="url(#path-1-outside-1_157_39)"/>
</svg>
