<svg width="83" height="56" viewBox="0 0 83 56" fill="none" xmlns="http://www.w3.org/2000/svg">
<rect x="58" y="36.2292" width="29.3154" height="5.86309" rx="2.93154" transform="rotate(-45 58 36.2292)" fill="#6A669D"/>
<rect x="62.2709" y="15.6251" width="29.3154" height="5.86309" rx="2.93154" transform="rotate(45 62.2709 15.6251)" fill="#6A669D"/>
<path d="M40.7686 2.6106C43.7982 1.03147 47.2017 1.23133 49.8477 2.6106C52.4965 3.9914 54.4998 6.62829 54.5 9.95532V46.0442L54.4941 46.3547C54.374 49.5353 52.4135 52.0512 49.8477 53.3889C47.2017 54.7682 43.7982 54.9681 40.7686 53.3889L18.918 41.9993H8C4.41015 41.9993 1.5 39.0891 1.5 35.4993V20.4993L1.50879 20.1653C1.68303 16.7312 4.52226 13.9993 8 13.9993H18.9199L40.7686 2.6106Z" fill="#6A669D" fill-opacity="0.7" stroke="#6A669D" stroke-width="3"/>
</svg>
