<svg width="125" height="50" viewBox="0 0 125 50" fill="none" xmlns="http://www.w3.org/2000/svg">
<rect x="1.5" y="1.5" width="122" height="47" rx="3.5" fill="#6A669D" fill-opacity="0.7" stroke="#6A669D" stroke-width="3"/>
<path d="M39.7595 33.648C39.6475 33.76 39.3035 33.816 38.7275 33.816C38.3275 33.896 37.8555 33.832 37.3115 33.624L36.8075 33.456L36.0635 33.096C35.9995 33.096 35.9595 33.096 35.9435 33.096C35.9275 33.112 35.8875 33.096 35.8235 33.048C35.7275 32.968 35.6155 32.904 35.4875 32.856C35.1675 32.632 34.9435 32.432 34.8155 32.256C34.3035 31.44 34.0475 30.76 34.0475 30.216C34.0475 30.152 34.1275 30.032 34.2875 29.856C34.6075 29.472 35.0075 29.28 35.4875 29.28C35.6795 29.296 35.8315 29.36 35.9435 29.472L36.7355 30.504C36.8635 30.632 37.0075 30.76 37.1675 30.888L37.4795 31.224L37.9595 31.632C38.0235 31.664 38.0875 31.68 38.1515 31.68C38.2155 31.712 38.3915 31.752 38.6795 31.8C38.9995 31.72 39.2715 31.632 39.4955 31.536C39.6395 31.392 39.7675 31.28 39.8795 31.2L40.2155 30.816C40.2475 30.784 40.3035 30.656 40.3835 30.432C40.3835 30.224 40.3835 30.088 40.3835 30.024C40.3995 29.944 40.3755 29.744 40.3115 29.424C40.2955 29.376 40.1835 29.248 39.9755 29.04C39.8795 28.848 39.7435 28.64 39.5675 28.416C39.4715 28.32 39.0075 28.064 38.1755 27.648L37.7195 27.384L37.2875 27C37.0795 26.936 36.7835 26.72 36.3995 26.352C36.2395 26.24 36.1195 26.152 36.0395 26.088C35.9435 26.056 35.6795 25.784 35.2475 25.272C35.2475 25.24 35.1115 24.936 34.8395 24.36L34.6235 23.424L34.7195 22.8C34.6235 22.384 34.5915 22.072 34.6235 21.864C34.6875 21.768 34.7675 21.576 34.8635 21.288C34.8155 21.048 35.0315 20.576 35.5115 19.872C35.5115 19.776 35.8635 19.392 36.5675 18.72L37.3835 18.288L37.7675 18.12C37.9115 18.104 38.1035 18.08 38.3435 18.048C38.5995 18.016 38.9755 18.016 39.4715 18.048C39.9675 18.08 40.2795 18.144 40.4075 18.24C40.5195 18.288 40.8395 18.504 41.3675 18.888C42.0715 19.512 42.4555 20.072 42.5195 20.568C42.7915 21.384 42.8075 22.256 42.5675 23.184C42.5675 23.248 42.3435 23.376 41.8955 23.568L41.2955 23.544C40.7835 23.48 40.2955 23.216 39.8315 22.752C39.7035 22.672 39.6075 22.448 39.5435 22.08C39.5275 21.696 39.4475 21.464 39.3035 21.384C39.2875 21.368 39.2235 21.224 39.1115 20.952C38.8395 20.6 38.6555 20.424 38.5595 20.424C38.4795 20.424 38.3835 20.448 38.2715 20.496C37.6955 20.96 37.3915 21.48 37.3595 22.056C37.2475 22.52 37.3915 23.088 37.7915 23.76C37.9675 24.016 38.0795 24.144 38.1275 24.144C38.2235 24.304 38.4075 24.504 38.6795 24.744L39.0155 25.104L40.0235 25.848L40.4315 26.256L40.8875 26.544C41.1435 26.656 41.3915 26.808 41.6315 27C41.9515 27.24 42.3435 27.688 42.8075 28.344C42.9035 28.488 43.0315 28.92 43.1915 29.64V30.576L43.0715 31.128C42.9915 31.208 42.9035 31.368 42.8075 31.608C42.8075 31.624 42.7195 31.84 42.5435 32.256C42.4955 32.336 42.3035 32.504 41.9675 32.76C41.4875 33.144 40.9515 33.432 40.3595 33.624C40.2315 33.656 40.0315 33.664 39.7595 33.648ZM50.5989 32.112L50.4549 31.704L50.1909 30.096C50.1109 29.792 50.0709 29.52 50.0709 29.28L50.1669 28.224C50.1669 28.048 50.1749 27.952 50.1909 27.936C49.9989 27.936 49.7109 28.168 49.3269 28.632C49.2949 28.68 49.2469 28.76 49.1829 28.872C48.5109 29.944 48.1109 31.232 47.9829 32.736C47.8549 33.008 47.6869 33.144 47.4789 33.144C47.0469 33.048 46.8069 33 46.7589 33L46.5909 33.024H46.2789C45.9109 32.992 45.6709 32.848 45.5589 32.592C45.4949 32.512 45.4629 32.304 45.4629 31.968V31.632L45.3909 30.312V28.344C45.3909 28.12 45.3749 27.84 45.3429 27.504C45.3109 27.136 45.3029 26.56 45.3189 25.776C45.3349 24.976 45.3269 24.552 45.2949 24.504C45.2629 24.44 45.2469 24.36 45.2469 24.264C45.2469 24.168 45.2709 24.072 45.3189 23.976C45.3669 23.88 45.5829 23.776 45.9669 23.664C46.1749 23.536 46.3509 23.472 46.4949 23.472C46.7189 23.52 47.0069 23.616 47.3589 23.76C47.5989 23.808 47.7189 24.04 47.7189 24.456C47.7509 25.144 47.7509 25.64 47.7189 25.944C47.7029 26.248 47.7109 26.864 47.7429 27.792C48.9269 25.52 49.9829 24.152 50.9109 23.688C50.9909 23.608 51.1109 23.568 51.2709 23.568C51.4309 23.568 51.6149 23.648 51.8229 23.808C52.0309 23.968 52.1749 24.072 52.2549 24.12C52.3349 24.168 52.4229 24.248 52.5189 24.36C52.6309 24.472 52.7189 24.544 52.7829 24.576C52.9749 24.896 53.0149 25.648 52.9029 26.832C52.8869 27.008 52.8709 27.168 52.8549 27.312C52.8389 27.44 52.8309 27.728 52.8309 28.176C52.8309 28.624 52.8389 28.936 52.8549 29.112C52.9029 29.672 52.9269 30 52.9269 30.096L53.0469 31.008C53.2069 31.376 53.2869 31.664 53.2869 31.872C53.3029 32.064 53.4469 32.376 53.7189 32.808C53.8309 33.048 53.7829 33.24 53.5749 33.384C53.2549 33.544 53.0789 33.608 53.0469 33.576C53.0309 33.56 52.9429 33.576 52.7829 33.624C52.6229 33.688 52.3349 33.704 51.9189 33.672C51.7109 33.624 51.5029 33.496 51.2949 33.288L50.9349 32.928C50.8069 32.736 50.7189 32.528 50.6709 32.304C50.5909 32.224 50.5669 32.16 50.5989 32.112ZM60.015 25.92C59.903 25.28 59.591 24.984 59.079 25.032C58.791 25.048 58.543 25.24 58.335 25.608C58.047 26.168 57.919 26.896 57.951 27.792C57.999 28.672 58.063 29.312 58.143 29.712C58.239 30.096 58.399 30.432 58.623 30.72C58.751 30.944 58.943 31.048 59.199 31.032C59.647 31.032 59.975 30.656 60.183 29.904L60.375 29.328C60.455 29.248 60.471 29.168 60.423 29.088C60.583 28.688 60.671 28.216 60.687 27.672C60.527 27.56 60.431 27.456 60.399 27.36C60.303 27.088 60.255 26.904 60.255 26.808C60.143 26.728 60.079 26.576 60.063 26.352C60.047 26.128 60.031 25.984 60.015 25.92ZM55.623 28.176L55.719 26.952C55.831 25.848 56.167 24.904 56.727 24.12C57.271 23.464 58.039 23.128 59.031 23.112H59.175C60.103 23.112 60.775 23.312 61.191 23.712C61.639 24.064 61.967 24.448 62.175 24.864C62.399 25.28 62.543 25.584 62.607 25.776C62.671 25.968 62.711 26.248 62.727 26.616C62.759 27.304 62.623 27.696 62.319 27.792C62.543 29.312 62.407 30.52 61.911 31.416C61.751 31.784 61.519 32.184 61.215 32.616C60.991 32.904 60.591 33.064 60.015 33.096C59.439 33.096 58.935 33.064 58.503 33C58.087 32.936 57.623 32.736 57.111 32.4C56.599 32.048 56.239 31.48 56.031 30.696C55.807 29.944 55.671 29.104 55.623 28.176ZM69.9705 27.192L69.8505 26.568C69.8505 26.52 69.8345 26.464 69.8025 26.4C69.7865 26.336 69.7625 26.216 69.7305 26.04C69.6025 25.944 69.5145 25.872 69.4665 25.824L69.3465 25.632L69.2745 25.416C69.1945 25.368 69.1465 25.304 69.1305 25.224C69.1305 25.128 69.0985 25.056 69.0345 25.008C68.9865 24.944 68.9465 24.888 68.9145 24.84C68.8825 24.776 68.8505 24.736 68.8185 24.72C68.6745 24.624 68.4825 24.616 68.2425 24.696C68.0025 24.776 67.8585 24.888 67.8105 25.032C67.5385 25.64 67.4025 26.032 67.4025 26.208C67.1785 26.976 67.1145 27.52 67.2105 27.84C67.1785 28.352 67.2425 29.056 67.4025 29.952V30.216C67.5465 30.408 67.6825 30.664 67.8105 30.984C67.9705 31.192 68.0745 31.344 68.1225 31.44C68.1865 31.52 68.2265 31.568 68.2425 31.584C68.4025 31.696 68.4985 31.776 68.5305 31.824C68.6585 31.76 68.7465 31.712 68.7945 31.68V31.512C68.8745 31.448 68.9465 31.4 69.0105 31.368C68.9945 31.368 69.0505 31.312 69.1785 31.2L69.2985 31.08C69.5385 30.568 69.6585 30.304 69.6585 30.288C69.6585 30.256 69.6505 30.2 69.6345 30.12C69.5705 29.976 69.6105 29.864 69.7545 29.784C69.7545 29.784 69.8505 29.504 70.0425 28.944V28.8C70.0745 28.704 70.0585 28.632 69.9945 28.584V28.416C70.0265 28.352 70.0425 28.288 70.0425 28.224C70.1065 27.968 70.1305 27.816 70.1145 27.768C70.1145 27.72 70.1225 27.664 70.1385 27.6C70.1545 27.52 70.1785 27.464 70.2105 27.432C70.2585 27.368 70.1785 27.288 69.9705 27.192ZM66.5625 22.656C66.7065 22.656 66.8105 22.64 66.8745 22.608C66.9545 22.56 67.0905 22.504 67.2825 22.44C67.4905 22.376 67.9705 22.376 68.7225 22.44C69.1385 22.52 69.6025 22.728 70.1145 23.064C70.6425 23.32 71.0665 23.672 71.3865 24.12C71.8345 25.304 72.0825 26.336 72.1305 27.216C72.1625 28.56 72.0345 29.672 71.7465 30.552C71.3465 31.56 71.0825 32.152 70.9545 32.328C70.9225 32.536 70.7945 32.808 70.5705 33.144C70.4905 33.144 70.4265 33.152 70.3785 33.168C70.3785 33.184 70.3305 33.232 70.2345 33.312C70.1545 33.408 70.0345 33.456 69.8745 33.456C69.6665 33.504 69.5385 33.544 69.4905 33.576C69.4585 33.624 69.3785 33.648 69.2505 33.648L68.6505 33.696H68.0025C67.5705 33.696 67.2265 33.64 66.9705 33.528L66.2505 33.048L66.0105 32.76C65.9625 32.76 65.9305 32.744 65.9145 32.712C65.9145 32.664 65.9065 32.624 65.8905 32.592C65.7465 32.48 65.6745 32.352 65.6745 32.208C65.4985 31.936 65.4105 31.744 65.4105 31.632C65.4105 31.52 65.3865 31.44 65.3385 31.392C65.3385 31.152 65.2665 30.8 65.1225 30.336L65.0745 30V29.736C65.0585 29.496 64.9945 29.216 64.8825 28.896C64.9145 28.864 64.9145 28.776 64.8825 28.632C64.8825 28.264 64.8905 28.016 64.9065 27.888L64.8345 27.576C64.8825 27.48 64.8985 27.392 64.8825 27.312C64.8825 27.232 64.9065 27.112 64.9545 26.952V26.784L65.0505 25.944C65.0505 25.832 65.0665 25.744 65.0985 25.68V25.512C65.1305 25.512 65.1545 25.432 65.1705 25.272L65.2905 25.08L65.3145 24.888C65.3145 24.84 65.3065 24.792 65.2905 24.744L65.4105 24.384C65.4105 24.352 65.4665 24.256 65.5785 24.096C65.5785 24.016 65.6345 23.896 65.7465 23.736C65.7465 23.656 65.7865 23.56 65.8665 23.448C65.8665 23.304 65.9545 23.12 66.1305 22.896C66.2905 22.736 66.4345 22.656 66.5625 22.656ZM73.4649 23.448C73.4649 23.048 73.8169 22.832 74.5209 22.8C74.6009 22.8 74.6889 22.784 74.7849 22.752H74.8329C75.4729 22.704 75.8889 22.688 76.0809 22.704C76.2889 22.704 76.4489 22.696 76.5609 22.68H77.3769C77.3769 22.696 77.5449 22.704 77.8809 22.704H78.4329C78.6569 22.72 78.8249 22.752 78.9369 22.8C78.9369 22.8 79.1769 22.824 79.6569 22.872C79.8329 22.872 80.0489 22.896 80.3049 22.944C80.5609 22.976 80.8649 23.168 81.2169 23.52C81.5849 23.872 81.8329 24.312 81.9609 24.84C82.0729 25.112 82.1369 25.32 82.1529 25.464C82.1689 25.592 82.0729 25.776 81.8649 26.016C81.6729 26.256 81.5449 26.4 81.4809 26.448C81.4329 26.496 81.4009 26.536 81.3849 26.568C81.3689 26.584 81.2249 26.768 80.9529 27.12C80.8889 27.168 80.8169 27.264 80.7369 27.408C80.6729 27.552 80.5929 27.664 80.4969 27.744L80.0409 28.176C79.9769 28.24 79.7849 28.48 79.4649 28.896C79.1449 29.296 78.8809 29.576 78.6729 29.736C78.4649 29.896 78.2409 30.128 78.0009 30.432C78.0649 30.384 78.0729 30.392 78.0249 30.456C77.9609 30.52 77.8409 30.64 77.6649 30.816C77.2329 31.2 77.1129 31.472 77.3049 31.632L77.4729 31.704L78.0489 31.632C78.1289 31.632 78.3529 31.56 78.7209 31.416C79.0569 31.32 79.4089 31.288 79.7769 31.32C80.1609 31.272 80.4409 31.24 80.6169 31.224C80.7929 31.192 80.8889 31.176 80.9049 31.176L81.2169 31.104C81.9369 31.12 82.2329 31.48 82.1049 32.184C82.1049 32.536 81.9529 32.776 81.6489 32.904L81.4809 33.024L80.8089 33.312C80.7129 33.376 80.5849 33.416 80.4249 33.432C79.9929 33.56 79.5129 33.656 78.9849 33.72C78.4729 33.8 78.1209 33.888 77.9289 33.984C77.7369 34.016 77.4969 34.016 77.2089 33.984C76.9209 33.968 76.6569 33.96 76.4169 33.96C75.7929 33.88 75.3129 33.584 74.9769 33.072C74.8489 33.2 74.7529 33.112 74.6889 32.808C74.6569 32.696 74.6329 32.552 74.6169 32.376C74.4889 32.248 74.3929 32.016 74.3289 31.68V31.2C74.3289 31.168 74.3929 31.024 74.5209 30.768C74.5209 30.592 74.6489 30.328 74.9049 29.976C75.0009 29.896 75.1049 29.76 75.2169 29.568C75.3449 29.376 75.7049 29.08 76.2969 28.68C76.6489 28.392 76.8809 28.192 76.9929 28.08C77.1209 27.952 77.2569 27.824 77.4009 27.696C77.5449 27.568 77.6809 27.432 77.8089 27.288L78.0249 27.12C78.3769 26.88 78.6889 26.576 78.9609 26.208L79.3689 25.68C79.4489 25.552 79.4329 25.448 79.3209 25.368C78.9689 25.128 78.2249 25.088 77.0889 25.248L76.2009 25.296C76.1689 25.312 75.7769 25.36 75.0249 25.44H74.6649C74.5529 25.408 74.3769 25.248 74.1369 24.96C73.9129 24.656 73.7369 24.36 73.6089 24.072C73.4969 23.784 73.4489 23.576 73.4649 23.448ZM88.6132 25.32V25.056C88.6132 24.88 88.6052 24.792 88.5892 24.792L88.4452 24.744C88.3332 24.744 88.2452 24.728 88.1812 24.696C88.0692 24.728 87.9812 24.776 87.9172 24.84C87.7092 24.968 87.5652 25.12 87.4852 25.296L86.9572 26.352C86.7172 26.848 86.5812 27.488 86.5492 28.272C86.9652 28.448 87.2692 28.44 87.4612 28.248C87.5732 28.152 87.6692 28.04 87.7492 27.912C87.7812 27.8 87.8452 27.696 87.9412 27.6C88.0372 27.488 88.1332 27.224 88.2292 26.808C88.4852 26.408 88.6132 25.912 88.6132 25.32ZM90.7492 25.656V25.92C90.7172 26.896 90.4292 27.776 89.8852 28.56C89.8052 28.672 89.6932 28.8 89.5492 28.944L89.0212 29.472C88.9092 29.584 88.7652 29.688 88.5892 29.784L88.0612 29.928C88.0132 29.896 87.8772 29.864 87.6532 29.832C87.4772 29.896 87.3252 29.88 87.1972 29.784C87.1812 29.784 87.0932 29.752 86.9332 29.688C86.7892 29.624 86.6052 29.584 86.3812 29.568C86.4132 29.824 86.4292 30.104 86.4292 30.408L86.7172 31.512C86.8932 31.848 87.0612 32.064 87.2212 32.16C87.3972 32.24 87.5812 32.288 87.7732 32.304C87.9812 32.304 88.1332 32.28 88.2292 32.232C88.3412 32.184 88.5252 32.112 88.7812 32.016L89.2612 31.776C89.5972 31.584 89.8852 31.632 90.1252 31.92C90.2532 32.064 90.3092 32.256 90.2932 32.496C90.2772 32.72 90.1812 32.928 90.0052 33.12C89.9092 33.344 89.6612 33.552 89.2612 33.744C89.2452 33.744 89.1732 33.776 89.0452 33.84C88.3252 34.192 87.5252 34.24 86.6452 33.984L86.1892 33.768C86.1412 33.768 86.0932 33.744 86.0452 33.696C85.8532 33.648 85.6452 33.528 85.4212 33.336C85.1972 33.144 85.0372 32.984 84.9412 32.856C84.8612 32.728 84.8052 32.64 84.7732 32.592C84.7412 32.544 84.6852 32.44 84.6052 32.28C84.3332 31.768 84.1332 31.28 84.0052 30.816L83.8612 30.12C83.8932 30.056 83.9012 29.872 83.8852 29.568V29.184C83.7412 28.928 83.8292 28.344 84.1492 27.432C84.4052 26.216 84.6132 25.504 84.7732 25.296L85.0852 24.672C85.0852 24.656 85.1812 24.536 85.3732 24.312C85.4052 24.232 85.5892 24.072 85.9252 23.832C85.9892 23.736 86.0852 23.68 86.2132 23.664C86.2772 23.6 86.3812 23.544 86.5252 23.496C86.6532 23.384 86.8452 23.312 87.1012 23.28C87.3412 23.2 87.7092 23.176 88.2052 23.208C89.3412 23.304 90.1172 23.784 90.5332 24.648L90.7012 25.176C90.7012 25.256 90.7252 25.352 90.7732 25.464C90.7572 25.496 90.7492 25.56 90.7492 25.656Z" fill="#FBE9F5"/>
</svg>
